<?xml version="1.0" encoding="utf-8"?>
<!-- Generator: Adobe Illustrator 15.1.0, SVG Export Plug-In . SVG Version: 6.00 Build 0)  -->
<!DOCTYPE svg PUBLIC "-//W3C//DTD SVG 1.1//EN" "http://www.w3.org/Graphics/SVG/1.1/DTD/svg11.dtd">
<svg version="1.1" id="Layer_1" xmlns="http://www.w3.org/2000/svg" xmlns:xlink="http://www.w3.org/1999/xlink" x="0px" y="0px"
	 width="24px" height="24px" viewBox="0 0 24 24" enable-background="new 0 0 24 24" xml:space="preserve">
<g opacity="0.5">
	<path d="M9.75,3c1.803,0,3.499,0.702,4.773,1.977c2.632,2.632,2.633,6.914,0,9.545c-1.274,1.275-2.97,1.978-4.773,1.978
		c-1.803,0-3.497-0.702-4.772-1.978C3.702,13.248,3,11.552,3,9.75c0-1.803,0.702-3.498,1.978-4.773C6.252,3.702,7.946,3,9.75,3
		 M9.75,0C7.255,0,4.759,0.952,2.856,2.855c-3.808,3.808-3.808,9.981,0,13.788C4.759,18.547,7.255,19.5,9.75,19.5
		c2.496,0,4.991-0.953,6.895-2.856c3.807-3.807,3.807-9.98,0-13.788C14.74,0.952,12.246,0,9.75,0L9.75,0z"/>
	<polygon points="24,21.349 21.348,24 14.505,17.158 15.737,15.739 16.95,14.299 	"/>
</g>
</svg>
